<svg width="32" height="32" viewBox="0 0 32 32" fill="none" xmlns="http://www.w3.org/2000/svg">
<rect width="32" height="32" rx="8" fill="white"/>
<path d="M12.5 17H10C9.86739 17 9.74021 16.9473 9.64645 16.8536C9.55268 16.7598 9.5 16.6326 9.5 16.5C9.5 16.3674 9.55268 16.2402 9.64645 16.1464C9.74021 16.0527 9.86739 16 10 16H12.2325L13.0837 14.7225C13.1294 14.6539 13.1913 14.5977 13.2639 14.5588C13.3365 14.5199 13.4176 14.4995 13.5 14.4995C13.5824 14.4995 13.6635 14.5199 13.7361 14.5588C13.8087 14.5977 13.8706 14.6539 13.9163 14.7225L15.5 17.0975L16.0837 16.2225C16.1294 16.154 16.1914 16.0979 16.264 16.059C16.3366 16.0202 16.4177 15.9999 16.5 16H18C18.1326 16 18.2598 16.0527 18.3536 16.1464C18.4473 16.2402 18.5 16.3674 18.5 16.5C18.5 16.6326 18.4473 16.7598 18.3536 16.8536C18.2598 16.9473 18.1326 17 18 17H16.7675L15.9163 18.2775C15.8706 18.3461 15.8087 18.4023 15.7361 18.4412C15.6635 18.4801 15.5824 18.5005 15.5 18.5005C15.4176 18.5005 15.3365 18.4801 15.2639 18.4412C15.1913 18.4023 15.1294 18.3461 15.0837 18.2775L13.5 15.9012L12.9163 16.7762C12.8707 16.845 12.8089 16.9014 12.7362 16.9404C12.6636 16.9794 12.5825 16.9999 12.5 17ZM19.125 10.5C17.8344 10.5 16.7044 11.055 16 11.9931C15.2956 11.055 14.1656 10.5 12.875 10.5C11.8476 10.5012 10.8627 10.9098 10.1362 11.6362C9.40979 12.3627 9.00116 13.3476 9 14.375C9 14.4219 9 14.4687 9 14.5156C9.00414 14.6482 9.0608 14.7738 9.1575 14.8646C9.25419 14.9554 9.38302 15.0041 9.51562 15C9.64823 14.9959 9.77376 14.9392 9.8646 14.8425C9.95544 14.7458 10.0041 14.617 10 14.4844C10 14.4481 10 14.4112 10 14.375C10.001 13.6128 10.3042 12.8821 10.8432 12.3432C11.3821 11.8042 12.1128 11.501 12.875 11.5C14.0906 11.5 15.1112 12.1475 15.5375 13.1875C15.5752 13.2792 15.6393 13.3576 15.7216 13.4128C15.804 13.468 15.9009 13.4975 16 13.4975C16.0991 13.4975 16.196 13.468 16.2784 13.4128C16.3607 13.3576 16.4248 13.2792 16.4625 13.1875C16.8887 12.1456 17.9094 11.5 19.125 11.5C19.8872 11.501 20.6179 11.8042 21.1568 12.3432C21.6958 12.8821 21.999 13.6128 22 14.375C22 17.7256 17.14 20.7594 16 21.425C15.3231 21.0306 13.3356 19.8 11.8325 18.1619C11.7881 18.1134 11.7346 18.0742 11.675 18.0465C11.6155 18.0188 11.551 18.003 11.4854 18.0002C11.4198 17.9973 11.3542 18.0074 11.2925 18.0299C11.2307 18.0524 11.174 18.0868 11.1256 18.1312C11.0772 18.1757 11.038 18.2292 11.0102 18.2887C10.9825 18.3483 10.9668 18.4127 10.9639 18.4783C10.9611 18.544 10.9712 18.6095 10.9937 18.6713C11.0162 18.733 11.0506 18.7897 11.095 18.8381C13.0431 20.9631 15.6531 22.3806 15.7631 22.44C15.8359 22.4792 15.9173 22.4997 16 22.4997C16.0827 22.4997 16.1641 22.4792 16.2369 22.44C16.5131 22.2912 23 18.75 23 14.375C22.9988 13.3476 22.5902 12.3627 21.8638 11.6362C21.1373 10.9098 20.1524 10.5012 19.125 10.5Z" fill="#272932"/>
</svg>
