<svg width="32" height="32" viewBox="0 0 32 32" fill="none" xmlns="http://www.w3.org/2000/svg">
<rect width="32" height="32" rx="8" fill="white"/>
<path d="M22 20.5H21.5V10.5C21.5 10.3674 21.4473 10.2402 21.3536 10.1464C21.2598 10.0527 21.1326 10 21 10H17.5C17.3674 10 17.2402 10.0527 17.1464 10.1464C17.0527 10.2402 17 10.3674 17 10.5V13H14C13.8674 13 13.7402 13.0527 13.6464 13.1464C13.5527 13.2402 13.5 13.3674 13.5 13.5V16H11C10.8674 16 10.7402 16.0527 10.6464 16.1464C10.5527 16.2402 10.5 16.3674 10.5 16.5V20.5H10C9.86739 20.5 9.74021 20.5527 9.64645 20.6464C9.55268 20.7402 9.5 20.8674 9.5 21C9.5 21.1326 9.55268 21.2598 9.64645 21.3536C9.74021 21.4473 9.86739 21.5 10 21.5H22C22.1326 21.5 22.2598 21.4473 22.3536 21.3536C22.4473 21.2598 22.5 21.1326 22.5 21C22.5 20.8674 22.4473 20.7402 22.3536 20.6464C22.2598 20.5527 22.1326 20.5 22 20.5ZM18 11H20.5V20.5H18V11ZM14.5 14H17V20.5H14.5V14ZM11.5 17H13.5V20.5H11.5V17Z" fill="#272932"/>
</svg>
