<svg width="32" height="33" viewBox="0 0 32 33" fill="none" xmlns="http://www.w3.org/2000/svg">
<rect y="0.75" width="32" height="32" rx="8" fill="#FEFCFB"/>
<path d="M19.4931 18.3336C19.3635 19.0578 19.0151 19.7249 18.4948 20.2451C17.9745 20.7653 17.3073 21.1135 16.5831 21.243C16.5556 21.2474 16.5278 21.2497 16.5 21.2499C16.3746 21.2499 16.2538 21.2027 16.1615 21.1178C16.0692 21.0328 16.0122 20.9163 16.0018 20.7913C15.9915 20.6663 16.0284 20.542 16.1054 20.443C16.1824 20.344 16.2938 20.2775 16.4175 20.2568C17.4531 20.0824 18.3319 19.2036 18.5075 18.1661C18.5297 18.0354 18.603 17.9188 18.7112 17.842C18.8193 17.7652 18.9536 17.7346 19.0844 17.7568C19.2152 17.779 19.3318 17.8522 19.4085 17.9604C19.4853 18.0686 19.516 18.2029 19.4937 18.3336H19.4931ZM21.5 17.7499C21.5 19.2086 20.9205 20.6075 19.8891 21.639C18.8576 22.6704 17.4587 23.2499 16 23.2499C14.5413 23.2499 13.1424 22.6704 12.1109 21.639C11.0795 20.6075 10.5 19.2086 10.5 17.7499C10.5 16.0049 11.1875 14.2205 12.5413 12.4468C12.5841 12.3906 12.6384 12.3442 12.7005 12.3105C12.7626 12.2768 12.8311 12.2567 12.9016 12.2514C12.972 12.2462 13.0428 12.2559 13.1092 12.28C13.1756 12.3041 13.2362 12.342 13.2869 12.3911L14.7944 13.8543L16.1694 10.0786C16.1968 10.0033 16.242 9.93575 16.3011 9.88156C16.3602 9.82737 16.4314 9.78818 16.5088 9.76728C16.5862 9.74639 16.6674 9.74441 16.7457 9.76151C16.8241 9.7786 16.8971 9.81428 16.9587 9.86552C18.3256 10.9999 21.5 14.0343 21.5 17.7499ZM20.5 17.7499C20.5 14.8693 18.2631 12.3799 16.8619 11.1043L15.47 14.9211C15.4414 14.9995 15.3937 15.0695 15.3312 15.1248C15.2686 15.18 15.1932 15.2187 15.1119 15.2373C15.0306 15.256 14.9459 15.254 14.8655 15.2315C14.7852 15.209 14.7117 15.1668 14.6519 15.1086L13.0037 13.5099C12.0056 14.9505 11.5 16.3749 11.5 17.7499C11.5 18.9434 11.9741 20.088 12.818 20.9319C13.6619 21.7758 14.8065 22.2499 16 22.2499C17.1935 22.2499 18.3381 21.7758 19.182 20.9319C20.0259 20.088 20.5 18.9434 20.5 17.7499Z" fill="#272932"/>
</svg>
