<svg width="32" height="33" viewBox="0 0 32 33" fill="none" xmlns="http://www.w3.org/2000/svg">
<rect y="0.25" width="32" height="32" rx="8" fill="#FEFCFB"/>
<g clip-path="url(#clip0_1438_1722)">
<path d="M18.875 11.2345C18.103 10.3429 17.2341 9.54001 16.2844 8.84073C16.2003 8.78184 16.1001 8.75024 15.9975 8.75024C15.8949 8.75024 15.7947 8.78184 15.7106 8.84073C14.7627 9.5403 13.8954 10.3432 13.125 11.2345C11.4069 13.2076 10.5 15.2876 10.5 17.2501C10.5 18.7088 11.0795 20.1077 12.1109 21.1392C13.1424 22.1706 14.5413 22.7501 16 22.7501C17.4587 22.7501 18.8576 22.1706 19.8891 21.1392C20.9205 20.1077 21.5 18.7088 21.5 17.2501C21.5 15.2876 20.5931 13.2076 18.875 11.2345ZM16 21.7501C14.8069 21.7488 13.6631 21.2743 12.8195 20.4306C11.9759 19.587 11.5013 18.4432 11.5 17.2501C11.5 13.6732 14.9669 10.6876 16 9.8751C17.0331 10.6876 20.5 13.672 20.5 17.2501C20.4987 18.4432 20.0241 19.587 19.1805 20.4306C18.3369 21.2743 17.1931 21.7488 16 21.7501ZM19.4931 17.8339C19.3635 18.558 19.0151 19.2251 18.4948 19.7453C17.9745 20.2655 17.3073 20.6137 16.5831 20.7432C16.5556 20.7476 16.5278 20.7499 16.5 20.7501C16.3746 20.7501 16.2538 20.7029 16.1615 20.618C16.0692 20.533 16.0122 20.4165 16.0018 20.2915C15.9915 20.1665 16.0284 20.0422 16.1054 19.9432C16.1824 19.8442 16.2938 19.7777 16.4175 19.757C17.4531 19.5826 18.3319 18.7039 18.5075 17.6664C18.5297 17.5356 18.603 17.419 18.7112 17.3422C18.8193 17.2654 18.9536 17.2348 19.0844 17.257C19.2152 17.2792 19.3318 17.3524 19.4085 17.4606C19.4853 17.5688 19.516 17.7031 19.4937 17.8339H19.4931Z" fill="#272932"/>
</g>
<defs>
<clipPath id="clip0_1438_1722">
<rect width="16" height="16" fill="white" transform="translate(8 8.25)"/>
</clipPath>
</defs>
</svg>
