<svg width="32" height="33" viewBox="0 0 32 33" fill="none" xmlns="http://www.w3.org/2000/svg">
<rect y="0.75" width="32" height="32" rx="8" fill="#FEFCFB"/>
<g clip-path="url(#clip0_1438_6810)">
<path d="M18.5003 13.5C18.5003 13.6484 18.4564 13.7934 18.3739 13.9167C18.2915 14.04 18.1744 14.1362 18.0374 14.1929C17.9003 14.2497 17.7495 14.2645 17.604 14.2356C17.4585 14.2067 17.3249 14.1352 17.22 14.0303C17.1151 13.9255 17.0437 13.7918 17.0148 13.6463C16.9858 13.5009 17.0007 13.3501 17.0574 13.213C17.1142 13.076 17.2103 12.9588 17.3337 12.8764C17.457 12.794 17.602 12.75 17.7503 12.75C17.9493 12.75 18.14 12.829 18.2807 12.9697C18.4213 13.1103 18.5003 13.3011 18.5003 13.5ZM21.5453 17.7275C20.3347 19.9088 18.0803 21.0875 14.8428 21.2338L13.4678 24.4469C13.4292 24.5371 13.3649 24.614 13.2828 24.6679C13.2008 24.7218 13.1047 24.7503 13.0066 24.75H12.9747C12.8717 24.7436 12.7732 24.7054 12.6927 24.6407C12.6123 24.576 12.5538 24.488 12.5253 24.3888L11.6003 21.1494L8.36284 20.2225C8.26332 20.1946 8.17492 20.1365 8.10978 20.0562C8.04465 19.9759 8.006 19.8774 7.99915 19.7743C7.99229 19.6712 8.01758 19.5684 8.07152 19.4802C8.12545 19.3921 8.2054 19.3228 8.30034 19.2819L11.5135 17.9069C11.6603 14.6706 12.8391 12.4169 15.0191 11.2056C16.566 10.3469 18.3153 10.2156 19.5116 10.2569C20.6766 10.2969 21.7616 10.5238 21.9403 10.6319C22.0133 10.6749 22.0742 10.7358 22.1172 10.8088C22.2228 10.9869 22.4503 12.0719 22.4922 13.2369C22.5347 14.4306 22.4041 16.1806 21.5453 17.7275ZM18.0966 19.54C17.5189 19.3198 17.0158 18.9396 16.6461 18.444C16.2765 17.9484 16.0555 17.3578 16.0091 16.7413C15.3927 16.6949 14.8022 16.4741 14.3067 16.1045C13.8112 15.735 13.4311 15.232 13.211 14.6544C12.7756 15.6456 12.5401 16.8454 12.5047 18.2538C12.5025 18.3497 12.4727 18.4429 12.419 18.5224C12.3653 18.6018 12.2898 18.6641 12.2016 18.7019L9.98972 19.6481L12.1428 20.2644C12.2245 20.2878 12.2989 20.3317 12.3589 20.3918C12.419 20.452 12.4627 20.5264 12.486 20.6081L13.101 22.7606L14.0485 20.5481C14.0863 20.4601 14.1487 20.3847 14.2281 20.3311C14.3076 20.2775 14.4008 20.2478 14.4966 20.2456C15.9037 20.2119 17.1037 19.9767 18.0966 19.54ZM21.2766 11.4731C20.3922 11.2856 17.2703 10.7856 15.0078 12.395C14.6334 12.6622 14.297 12.9791 14.0078 13.3369C13.9842 13.6634 14.032 13.9911 14.148 14.2972C14.2641 14.6034 14.4455 14.8805 14.6797 15.1092C14.9138 15.338 15.1951 15.5129 15.5038 15.6217C15.8126 15.7306 16.1414 15.7707 16.4672 15.7394C16.5406 15.7323 16.6147 15.7416 16.6841 15.7665C16.7535 15.7914 16.8165 15.8314 16.8687 15.8835C16.9208 15.9357 16.9608 15.9987 16.9857 16.0681C17.0107 16.1375 17.0199 16.2116 17.0128 16.285C16.9816 16.611 17.0219 16.9399 17.1308 17.2487C17.2398 17.5575 17.4149 17.8388 17.6439 18.0729C17.8728 18.307 18.1502 18.4884 18.4564 18.6042C18.7627 18.7201 19.0906 18.7677 19.4172 18.7438C19.7737 18.4546 20.0891 18.1182 20.3547 17.7438C21.9641 15.4831 21.4641 12.3588 21.2766 11.4731Z" fill="#272932"/>
</g>
<defs>
<clipPath id="clip0_1438_6810">
<rect width="16" height="16" fill="white" transform="translate(8 8.75)"/>
</clipPath>
</defs>
</svg>
