<svg width="32" height="32" viewBox="0 0 32 32" fill="none" xmlns="http://www.w3.org/2000/svg">
<path d="M25 16C25 16.1989 24.921 16.3897 24.7803 16.5303C24.6397 16.671 24.4489 16.75 24.25 16.75H7.75C7.55109 16.75 7.36032 16.671 7.21967 16.5303C7.07902 16.3897 7 16.1989 7 16C7 15.8011 7.07902 15.6103 7.21967 15.4697C7.36032 15.329 7.55109 15.25 7.75 15.25H24.25C24.4489 15.25 24.6397 15.329 24.7803 15.4697C24.921 15.6103 25 15.8011 25 16ZM7.75 10.75H24.25C24.4489 10.75 24.6397 10.671 24.7803 10.5303C24.921 10.3897 25 10.1989 25 10C25 9.80109 24.921 9.61032 24.7803 9.46967C24.6397 9.32902 24.4489 9.25 24.25 9.25H7.75C7.55109 9.25 7.36032 9.32902 7.21967 9.46967C7.07902 9.61032 7 9.80109 7 10C7 10.1989 7.07902 10.3897 7.21967 10.5303C7.36032 10.671 7.55109 10.75 7.75 10.75ZM24.25 21.25H7.75C7.55109 21.25 7.36032 21.329 7.21967 21.4697C7.07902 21.6103 7 21.8011 7 22C7 22.1989 7.07902 22.3897 7.21967 22.5303C7.36032 22.671 7.55109 22.75 7.75 22.75H24.25C24.4489 22.75 24.6397 22.671 24.7803 22.5303C24.921 22.3897 25 22.1989 25 22C25 21.8011 24.921 21.6103 24.7803 21.4697C24.6397 21.329 24.4489 21.25 24.25 21.25Z" fill="#8A8C90"/>
</svg>
