<svg width="20" height="20" viewBox="0 0 20 20" fill="none" xmlns="http://www.w3.org/2000/svg">
<path d="M10 6.25C10.4945 6.25 10.9778 6.10338 11.3889 5.82868C11.8 5.55397 12.1205 5.16353 12.3097 4.70671C12.4989 4.24989 12.5484 3.74723 12.452 3.26228C12.3555 2.77732 12.1174 2.33187 11.7678 1.98223C11.4181 1.6326 10.9727 1.3945 10.4877 1.29804C10.0028 1.20157 9.50011 1.25108 9.04329 1.4403C8.58648 1.62952 8.19603 1.94995 7.92133 2.36108C7.64662 2.7722 7.5 3.25555 7.5 3.75C7.5 4.41304 7.76339 5.04893 8.23223 5.51777C8.70107 5.98661 9.33696 6.25 10 6.25ZM10 2.5C10.2472 2.5 10.4889 2.57331 10.6945 2.71066C10.9 2.84802 11.0602 3.04324 11.1549 3.27165C11.2495 3.50005 11.2742 3.75139 11.226 3.99386C11.1778 4.23634 11.0587 4.45907 10.8839 4.63389C10.7091 4.8087 10.4863 4.92775 10.2439 4.97598C10.0014 5.02421 9.75005 4.99946 9.52165 4.90485C9.29324 4.81024 9.09801 4.65003 8.96066 4.44446C8.82331 4.2389 8.75 3.99723 8.75 3.75C8.75 3.41848 8.8817 3.10054 9.11612 2.86612C9.35054 2.6317 9.66848 2.5 10 2.5ZM17.5 8.125C17.5 8.29076 17.4342 8.44973 17.3169 8.56694C17.1997 8.68415 17.0408 8.75 16.875 8.75H10.625V10.8375L14.6211 12.5508C14.7335 12.5989 14.8293 12.679 14.8967 12.7811C14.964 12.8831 14.9999 13.0027 15 13.125V16.875C15 17.0408 14.9342 17.1997 14.8169 17.3169C14.6997 17.4342 14.5408 17.5 14.375 17.5C14.2092 17.5 14.0503 17.4342 13.9331 17.3169C13.8158 17.1997 13.75 17.0408 13.75 16.875V13.5375L10.1211 11.982L4.16797 17.3438C4.04468 17.4546 3.88241 17.5119 3.71685 17.5032C3.5513 17.4944 3.39601 17.4202 3.28516 17.2969C3.1743 17.1736 3.11697 17.0113 3.12576 16.8458C3.13455 16.6802 3.20875 16.5249 3.33203 16.4141L9.375 10.9719V8.75H3.125C2.95924 8.75 2.80027 8.68415 2.68306 8.56694C2.56585 8.44973 2.5 8.29076 2.5 8.125C2.5 7.95924 2.56585 7.80027 2.68306 7.68306C2.80027 7.56585 2.95924 7.5 3.125 7.5H16.875C17.0408 7.5 17.1997 7.56585 17.3169 7.68306C17.4342 7.80027 17.5 7.95924 17.5 8.125Z" fill="#757D83"/>
</svg>
