<svg width="32" height="33" viewBox="0 0 32 33" fill="none" xmlns="http://www.w3.org/2000/svg">
<rect y="0.25" width="32" height="32" rx="8" fill="#FEFCFB"/>
<path d="M23.0004 13.25C23.0004 12.587 22.737 11.9511 22.2682 11.4822C21.7994 11.0134 21.1635 10.75 20.5004 10.75H11.0004C10.4264 10.7503 9.86989 10.9483 9.42452 11.3105C8.97915 11.6727 8.67201 12.1772 8.5547 12.7392C8.4374 13.3011 8.51707 13.8863 8.78035 14.3965C9.04362 14.9066 9.47444 15.3106 10.0004 15.5406V20.75C10.0004 21.0152 10.1058 21.2696 10.2933 21.4571C10.4809 21.6446 10.7352 21.75 11.0004 21.75H20.5004C20.7657 21.75 21.02 21.6446 21.2075 21.4571C21.3951 21.2696 21.5004 21.0152 21.5004 20.75V15.5406C21.9459 15.3457 22.3249 15.0253 22.5913 14.6185C22.8577 14.2118 22.9998 13.7362 23.0004 13.25ZM11.0004 15.75C11.133 15.75 11.2602 15.6973 11.354 15.6036C11.4478 15.5098 11.5004 15.3826 11.5004 15.25C11.5004 15.1174 11.4478 14.9902 11.354 14.8964C11.2602 14.8027 11.133 14.75 11.0004 14.75C10.6026 14.75 10.2211 14.592 9.93978 14.3107C9.65848 14.0294 9.50044 13.6478 9.50044 13.25C9.50044 12.8522 9.65848 12.4706 9.93978 12.1893C10.2211 11.908 10.6026 11.75 11.0004 11.75H17.0004C17.3983 11.75 17.7798 11.908 18.0611 12.1893C18.3424 12.4706 18.5004 12.8522 18.5004 13.25C18.5004 13.6478 18.3424 14.0294 18.0611 14.3107C17.7798 14.592 17.3983 14.75 17.0004 14.75C16.8678 14.75 16.7407 14.8027 16.6469 14.8964C16.5531 14.9902 16.5004 15.1174 16.5004 15.25C16.5004 15.3826 16.5531 15.5098 16.6469 15.6036C16.7407 15.6973 16.8678 15.75 17.0004 15.75V20.75H11.0004V15.75ZM20.5004 14.75C20.3678 14.75 20.2407 14.8027 20.1469 14.8964C20.0531 14.9902 20.0004 15.1174 20.0004 15.25C20.0004 15.3826 20.0531 15.5098 20.1469 15.6036C20.2407 15.6973 20.3678 15.75 20.5004 15.75V20.75H18.0004V15.5406C18.346 15.3897 18.653 15.1626 18.8984 14.8763C19.1438 14.59 19.3212 14.2518 19.4174 13.8872C19.5136 13.5226 19.526 13.1409 19.4538 12.7708C19.3816 12.4007 19.2266 12.0517 19.0004 11.75H20.5004C20.8983 11.75 21.2798 11.908 21.5611 12.1893C21.8424 12.4706 22.0004 12.8522 22.0004 13.25C22.0004 13.6478 21.8424 14.0294 21.5611 14.3107C21.2798 14.592 20.8983 14.75 20.5004 14.75Z" fill="#272932"/>
</svg>
