<svg width="32" height="32" viewBox="0 0 32 32" fill="none" xmlns="http://www.w3.org/2000/svg">
<rect width="32" height="32" rx="8" fill="white"/>
<g clip-path="url(#clip0_1438_4649)">
<path d="M13.5 11V9C13.5 8.86739 13.5527 8.74021 13.6464 8.64645C13.7402 8.55268 13.8674 8.5 14 8.5C14.1326 8.5 14.2598 8.55268 14.3536 8.64645C14.4473 8.74021 14.5 8.86739 14.5 9V11C14.5 11.1326 14.4473 11.2598 14.3536 11.3536C14.2598 11.4473 14.1326 11.5 14 11.5C13.8674 11.5 13.7402 11.4473 13.6464 11.3536C13.5527 11.2598 13.5 11.1326 13.5 11ZM16 11.5C16.1326 11.5 16.2598 11.4473 16.3536 11.3536C16.4473 11.2598 16.5 11.1326 16.5 11V9C16.5 8.86739 16.4473 8.74021 16.3536 8.64645C16.2598 8.55268 16.1326 8.5 16 8.5C15.8674 8.5 15.7402 8.55268 15.6464 8.64645C15.5527 8.74021 15.5 8.86739 15.5 9V11C15.5 11.1326 15.5527 11.2598 15.6464 11.3536C15.7402 11.4473 15.8674 11.5 16 11.5ZM18 11.5C18.1326 11.5 18.2598 11.4473 18.3536 11.3536C18.4473 11.2598 18.5 11.1326 18.5 11V9C18.5 8.86739 18.4473 8.74021 18.3536 8.64645C18.2598 8.55268 18.1326 8.5 18 8.5C17.8674 8.5 17.7402 8.55268 17.6464 8.64645C17.5527 8.74021 17.5 8.86739 17.5 9V11C17.5 11.1326 17.5527 11.2598 17.6464 11.3536C17.7402 11.4473 17.8674 11.5 18 11.5ZM23.8 14.4L22 15.75V19.5C22 20.0304 21.7893 20.5391 21.4142 20.9142C21.0391 21.2893 20.5304 21.5 20 21.5H12C11.4696 21.5 10.9609 21.2893 10.5858 20.9142C10.2107 20.5391 10 20.0304 10 19.5V15.75L8.2 14.4C8.09392 14.3204 8.02378 14.202 8.00503 14.0707C7.98627 13.9394 8.02044 13.8061 8.1 13.7C8.17957 13.5939 8.29802 13.5238 8.42929 13.505C8.56057 13.4863 8.69392 13.5204 8.8 13.6L10 14.5V13C10 12.8674 10.0527 12.7402 10.1464 12.6464C10.2402 12.5527 10.3674 12.5 10.5 12.5H21.5C21.6326 12.5 21.7598 12.5527 21.8536 12.6464C21.9473 12.7402 22 12.8674 22 13V14.5L23.2 13.6C23.3061 13.5204 23.4394 13.4863 23.5707 13.505C23.702 13.5238 23.8204 13.5939 23.9 13.7C23.9796 13.8061 24.0137 13.9394 23.995 14.0707C23.9762 14.202 23.9061 14.3204 23.8 14.4ZM21 13.5H11V19.5C11 19.7652 11.1054 20.0196 11.2929 20.2071C11.4804 20.3946 11.7348 20.5 12 20.5H20C20.2652 20.5 20.5196 20.3946 20.7071 20.2071C20.8946 20.0196 21 19.7652 21 19.5V13.5Z" fill="#52545B"/>
</g>
<defs>
<clipPath id="clip0_1438_4649">
<rect width="16" height="16" fill="white" transform="translate(8 8)"/>
</clipPath>
</defs>
</svg>
