<svg width="32" height="32" viewBox="0 0 32 32" fill="none" xmlns="http://www.w3.org/2000/svg">
<rect width="32" height="32" rx="8" fill="white"/>
<path d="M22 16.0001C22 16.1327 21.9473 16.2599 21.8536 16.3537C21.7598 16.4474 21.6326 16.5001 21.5 16.5001H14.5C14.3674 16.5001 14.2402 16.4474 14.1465 16.3537C14.0527 16.2599 14 16.1327 14 16.0001C14 15.8675 14.0527 15.7403 14.1465 15.6466C14.2402 15.5528 14.3674 15.5001 14.5 15.5001H21.5C21.6326 15.5001 21.7598 15.5528 21.8536 15.6466C21.9473 15.7403 22 15.8675 22 16.0001ZM14.5 12.5001H21.5C21.6326 12.5001 21.7598 12.4474 21.8536 12.3537C21.9473 12.2599 22 12.1327 22 12.0001C22 11.8675 21.9473 11.7403 21.8536 11.6466C21.7598 11.5528 21.6326 11.5001 21.5 11.5001H14.5C14.3674 11.5001 14.2402 11.5528 14.1465 11.6466C14.0527 11.7403 14 11.8675 14 12.0001C14 12.1327 14.0527 12.2599 14.1465 12.3537C14.2402 12.4474 14.3674 12.5001 14.5 12.5001ZM21.5 19.5001H14.5C14.3674 19.5001 14.2402 19.5528 14.1465 19.6466C14.0527 19.7403 14 19.8675 14 20.0001C14 20.1327 14.0527 20.2599 14.1465 20.3537C14.2402 20.4474 14.3674 20.5001 14.5 20.5001H21.5C21.6326 20.5001 21.7598 20.4474 21.8536 20.3537C21.9473 20.2599 22 20.1327 22 20.0001C22 19.8675 21.9473 19.7403 21.8536 19.6466C21.7598 19.5528 21.6326 19.5001 21.5 19.5001ZM10.7238 11.4476L11 11.3089V14.5001C11 14.6327 11.0527 14.7599 11.1465 14.8537C11.2402 14.9474 11.3674 15.0001 11.5 15.0001C11.6326 15.0001 11.7598 14.9474 11.8536 14.8537C11.9473 14.7599 12 14.6327 12 14.5001V10.5001C12.0001 10.4148 11.9783 10.331 11.9368 10.2565C11.8954 10.182 11.8355 10.1193 11.763 10.0745C11.6904 10.0296 11.6077 10.0041 11.5225 10.0003C11.4373 9.99643 11.3525 10.0145 11.2763 10.0526L10.2763 10.5526C10.1576 10.612 10.0673 10.716 10.0254 10.8419C10.0046 10.9042 9.99631 10.97 10.001 11.0356C10.0056 11.1011 10.0231 11.1651 10.0525 11.2239C10.0819 11.2826 10.1226 11.335 10.1722 11.3781C10.2219 11.4211 10.2795 11.454 10.3418 11.4748C10.4677 11.5167 10.6051 11.507 10.7238 11.4476ZM12.9857 17.7951C12.958 17.5971 12.8906 17.4067 12.7875 17.2354C12.6844 17.0641 12.5477 16.9154 12.3857 16.7982C12.0611 16.5626 11.658 16.4615 11.2606 16.5163C10.8633 16.571 10.5025 16.7773 10.2538 17.092C10.1587 17.2141 10.0834 17.3503 10.0307 17.4957C10.0031 17.5583 9.98868 17.6259 9.98829 17.6943C9.9879 17.7627 10.0015 17.8305 10.0284 17.8934C10.0552 17.9563 10.0947 18.013 10.1443 18.0601C10.194 18.1071 10.2527 18.1435 10.317 18.1669C10.3812 18.1903 10.4496 18.2003 10.5179 18.1963C10.5862 18.1922 10.6529 18.1742 10.7139 18.1434C10.775 18.1125 10.829 18.0694 10.8727 18.0168C10.9165 17.9643 10.9489 17.9033 10.9682 17.8376C10.9857 17.7897 11.0105 17.7448 11.0419 17.7045C11.1301 17.5946 11.2573 17.5229 11.397 17.5044C11.5367 17.4859 11.6781 17.522 11.7919 17.6051C11.8466 17.6438 11.8929 17.6933 11.9279 17.7504C11.963 17.8076 11.986 17.8713 11.9957 17.9376C12.0045 18.0013 12.0003 18.0662 11.9835 18.1283C11.9666 18.1903 11.9374 18.2484 11.8975 18.2989C11.8957 18.301 11.894 18.3033 11.8925 18.3057L10.0994 20.7007C10.0438 20.7751 10.0101 20.8634 10.0018 20.9558C9.99362 21.0483 10.0113 21.1412 10.0529 21.2241C10.0944 21.3071 10.1583 21.3769 10.2373 21.4256C10.3162 21.4743 10.4072 21.5001 10.5 21.5001H12.5C12.6326 21.5001 12.7598 21.4474 12.8536 21.3537C12.9473 21.2599 13 21.1327 13 21.0001C13 20.8675 12.9473 20.7403 12.8536 20.6466C12.7598 20.5528 12.6326 20.5001 12.5 20.5001H11.5L12.6925 18.9045C12.8134 18.7488 12.9017 18.5703 12.9521 18.3797C13.0024 18.189 13.0139 17.9902 12.9857 17.7951Z" fill="#52545B"/>
</svg>
