<svg width="20" height="20" viewBox="0 0 20 20" fill="none" xmlns="http://www.w3.org/2000/svg">
<path d="M5.62501 6.87489V3.12489C5.62501 2.95913 5.69085 2.80016 5.80806 2.68294C5.92527 2.56573 6.08425 2.49989 6.25001 2.49989C6.41577 2.49989 6.57474 2.56573 6.69195 2.68294C6.80916 2.80016 6.87501 2.95913 6.87501 3.12489V6.87489C6.87501 7.04065 6.80916 7.19962 6.69195 7.31683C6.57474 7.43404 6.41577 7.49989 6.25001 7.49989C6.08425 7.49989 5.92527 7.43404 5.80806 7.31683C5.69085 7.19962 5.62501 7.04065 5.62501 6.87489ZM16.875 3.12489V17.4999C16.875 17.6656 16.8092 17.8246 16.6919 17.9418C16.5747 18.059 16.4158 18.1249 16.25 18.1249C16.0842 18.1249 15.9253 18.059 15.8081 17.9418C15.6909 17.8246 15.625 17.6656 15.625 17.4999V13.7499H11.875C11.7092 13.7499 11.5503 13.684 11.4331 13.5668C11.3159 13.4496 11.25 13.2906 11.25 13.1249C11.279 11.6278 11.4681 10.138 11.8141 8.68114C12.5781 5.51786 14.0266 3.39754 16.0039 2.55067C16.099 2.50996 16.2026 2.49346 16.3056 2.50266C16.4086 2.51185 16.5077 2.54645 16.594 2.60335C16.6803 2.66026 16.7512 2.73769 16.8002 2.82871C16.8493 2.91973 16.875 3.02149 16.875 3.12489ZM15.625 4.21082C13.1117 6.13036 12.6195 10.8061 12.5234 12.4999H15.625V4.21082ZM9.36641 3.02254C9.35417 2.94048 9.32571 2.86167 9.28269 2.79072C9.23968 2.71976 9.18296 2.65809 9.11586 2.60928C9.04875 2.56048 8.9726 2.52553 8.89184 2.50647C8.81109 2.4874 8.72735 2.48461 8.6455 2.49825C8.56366 2.51189 8.48535 2.54169 8.41514 2.58592C8.34493 2.63014 8.28423 2.6879 8.23658 2.75583C8.18893 2.82376 8.15529 2.90049 8.13761 2.98156C8.11992 3.06263 8.11856 3.14641 8.1336 3.22801L8.75001 6.92411C8.75001 7.58715 8.48661 8.22303 8.01777 8.69187C7.54893 9.16071 6.91305 9.42411 6.25001 9.42411C5.58696 9.42411 4.95108 9.16071 4.48224 8.69187C4.0134 8.22303 3.75001 7.58715 3.75001 6.92411L4.36563 3.22801C4.38067 3.14641 4.37931 3.06263 4.36163 2.98156C4.34394 2.90049 4.3103 2.82376 4.26265 2.75583C4.215 2.6879 4.1543 2.63014 4.08409 2.58592C4.01389 2.54169 3.93558 2.51189 3.85373 2.49825C3.77188 2.48461 3.68814 2.4874 3.60739 2.50647C3.52663 2.52553 3.45048 2.56048 3.38338 2.60928C3.31627 2.65809 3.25955 2.71976 3.21654 2.79072C3.17352 2.86167 3.14506 2.94048 3.13282 3.02254L2.50782 6.77254C2.50247 6.80639 2.49986 6.84062 2.50001 6.87489C2.50125 7.76068 2.81557 8.61751 3.3874 9.29399C3.95924 9.97048 4.75179 10.4231 5.62501 10.5718V17.4999C5.62501 17.6656 5.69085 17.8246 5.80806 17.9418C5.92527 18.059 6.08425 18.1249 6.25001 18.1249C6.41577 18.1249 6.57474 18.059 6.69195 17.9418C6.80916 17.8246 6.87501 17.6656 6.87501 17.4999V10.5718C7.74822 10.4231 8.54077 9.97048 9.11261 9.29399C9.68445 8.61751 9.99876 7.76068 10 6.87489C9.9999 6.8406 9.99702 6.80637 9.99141 6.77254L9.36641 3.02254Z" fill="#272932"/>
</svg>
