<svg width="20" height="20" viewBox="0 0 20 20" fill="none" xmlns="http://www.w3.org/2000/svg">
<path d="M10.3125 1.875C8.24119 1.87727 6.25538 2.70111 4.79074 4.16574C3.32611 5.63038 2.50227 7.61619 2.5 9.6875V16.25C2.5 16.5815 2.6317 16.8995 2.86612 17.1339C3.10054 17.3683 3.41848 17.5 3.75 17.5H10.3125C12.3845 17.5 14.3716 16.6769 15.8368 15.2118C17.3019 13.7466 18.125 11.7595 18.125 9.6875C18.125 7.6155 17.3019 5.62836 15.8368 4.16323C14.3716 2.6981 12.3845 1.875 10.3125 1.875ZM10.3125 16.25H3.75V9.6875C3.75 8.38956 4.13488 7.12077 4.85598 6.04157C5.57708 4.96237 6.602 4.12124 7.80114 3.62454C9.00028 3.12784 10.3198 2.99788 11.5928 3.2511C12.8658 3.50431 14.0351 4.12933 14.9529 5.04711C15.8707 5.96489 16.4957 7.13422 16.7489 8.40722C17.0021 9.68022 16.8722 10.9997 16.3755 12.1989C15.8788 13.398 15.0376 14.4229 13.9584 15.144C12.8792 15.8651 11.6104 16.25 10.3125 16.25ZM11.25 10C11.25 10.1854 11.195 10.3667 11.092 10.5208C10.989 10.675 10.8426 10.7952 10.6713 10.8661C10.5 10.9371 10.3115 10.9557 10.1296 10.9195C9.94775 10.8833 9.7807 10.794 9.64959 10.6629C9.51848 10.5318 9.42919 10.3648 9.39301 10.1829C9.35684 10.001 9.37541 9.81254 9.44636 9.64123C9.51732 9.46993 9.63748 9.32351 9.79165 9.2205C9.94582 9.11748 10.1271 9.0625 10.3125 9.0625C10.5611 9.0625 10.7996 9.16127 10.9754 9.33709C11.1512 9.5129 11.25 9.75136 11.25 10ZM7.8125 10C7.8125 10.1854 7.75752 10.3667 7.6545 10.5208C7.55149 10.675 7.40507 10.7952 7.23377 10.8661C7.06246 10.9371 6.87396 10.9557 6.6921 10.9195C6.51025 10.8833 6.3432 10.794 6.21209 10.6629C6.08098 10.5318 5.99169 10.3648 5.95551 10.1829C5.91934 10.001 5.93791 9.81254 6.00886 9.64123C6.07982 9.46993 6.19998 9.32351 6.35415 9.2205C6.50832 9.11748 6.68958 9.0625 6.875 9.0625C7.12364 9.0625 7.3621 9.16127 7.53791 9.33709C7.71373 9.5129 7.8125 9.75136 7.8125 10ZM14.6875 10C14.6875 10.1854 14.6325 10.3667 14.5295 10.5208C14.4265 10.675 14.2801 10.7952 14.1088 10.8661C13.9375 10.9371 13.749 10.9557 13.5671 10.9195C13.3852 10.8833 13.2182 10.794 13.0871 10.6629C12.956 10.5318 12.8667 10.3648 12.8305 10.1829C12.7943 10.001 12.8129 9.81254 12.8839 9.64123C12.9548 9.46993 13.075 9.32351 13.2292 9.2205C13.3833 9.11748 13.5646 9.0625 13.75 9.0625C13.9986 9.0625 14.2371 9.16127 14.4129 9.33709C14.5887 9.5129 14.6875 9.75136 14.6875 10Z" fill="#8A8C90"/>
</svg>
